<?xml version="1.0" encoding="UTF-8"?>
<svg id="_레이어_2" data-name="레이어 2" xmlns="http://www.w3.org/2000/svg" viewBox="0 0 1457.87 217.7">
  <defs>
    <style>
      .cls-1 {
        fill: #231815;
      }
    </style>
  </defs>
  <g id="_레이어_1-2" data-name="레이어 1">
    <g>
      <path class="cls-1" d="M430.74,7.13h32.57l37.75,108.89h-31.11l-7.29-21.55h-35.65l-6.81,21.55h-27.55L430.74,7.13ZM432.85,74.86h23.66l-11.5-36.13h-.65l-11.5,36.13Z"/>
      <path class="cls-1" d="M508.36,75.67v-1.94c0-28.36,16.85-42.78,43.26-42.78,11.5,0,18.15,1.46,23.33,4.21v19.93c-5.51-2.11-9.88-3.4-18.31-3.4-11.67,0-19.61,6-19.61,20.09v2.59c0,15.72,6,22.36,19.93,22.36,8.1,0,14.42-2.11,18.47-3.56v18.63c-4.54,2.92-12.8,5.67-24.95,5.67-27.55,0-42.13-14.42-42.13-41.8Z"/>
      <path class="cls-1" d="M585.81,93.82c0-17.66,12.15-23.49,30.14-25.93l15.23-2.27v-3.4c0-8.91-4.21-10.69-16.2-10.69-8.43,0-16.37,1.13-22.04,2.43v-18.15c8.59-3.4,19.61-4.86,32.57-4.86,20.58,0,33.22,6.64,33.22,25.6v59.47h-22.85l-1.94-6.48h-.81c-3.56,5.02-11.02,7.94-21.39,7.94-15.23,0-25.93-7.62-25.93-23.66ZM631.18,96.73v-16.2l-9.72.97c-6.48.65-9.24,3.24-9.24,9.4,0,7.13,3.73,9.24,8.91,9.24,4.38,0,8.26-1.46,10.05-3.4Z"/>
      <path class="cls-1" d="M672.5,76.32v-1.78c0-31.43,15.88-43.59,37.92-43.59,8.91,0,14.74,1.94,17.5,3.56V0h27.38v115.85h-23.66l-1.78-6.32h-.97c-5.67,5.35-13.12,7.94-23.33,7.94-17.5,0-33.05-11.67-33.05-41.16ZM727.91,93.66v-40.99c-2.27-1.46-6.32-2.92-11.5-2.92-9.72,0-15.56,5.19-15.56,23.01v2.43c0,17.82,6,22.2,15.23,22.2,5.18,0,9.24-1.78,11.83-3.73Z"/>
      <path class="cls-1" d="M769.23,75.02v-2.11c0-25.76,16.04-41.97,40.99-41.97,28.03,0,38.56,15.72,38.56,43.1v7.13h-51.53c1.62,13.12,9.07,16.85,23.17,16.85,9.88,0,18.47-2.43,24.95-5.02v17.01c-6.32,3.73-16.69,7.45-32.08,7.45-29.65,0-44.07-14.91-44.07-42.45ZM797.1,65.62h25.28c0-12.15-4.05-16.53-12.15-16.53-6.16,0-11.99,3.56-13.12,16.53Z"/>
      <path class="cls-1" d="M862.4,32.41h26.57v7.29h.81c6.97-5.51,15.07-8.75,25.92-8.75,9.56,0,16.2,2.75,19.93,9.4h.65c8.26-6.16,17.66-9.4,27.71-9.4,14.26,0,22.85,6,22.85,22.52v62.38h-27.55v-54.61c0-6.48-2.59-8.91-9.24-8.91-4.05,0-7.62,1.13-11.67,2.75,0,.81.16,1.46.16,1.94v58.82h-27.55v-54.61c0-6.48-2.75-8.91-9.24-8.91-4.05,0-8.43,1.3-11.67,2.75v60.76h-27.71V32.41Z"/>
      <path class="cls-1" d="M1004.18,137.08v-18.15c2.92.49,6.16.97,8.91.97,7.62,0,11.83-1.95,13.94-7.45l1.3-3.57-30.95-76.48h28.84l15.72,45.21h.32l16.37-45.21h25.93l-32.25,85.88c-5.67,16.53-14.26,21.39-32.08,21.39-5.67,0-12.8-1.13-16.04-2.59Z"/>
      <path class="cls-1" d="M1132.83,7.13h30.62l14.26,68.54h.65l17.34-68.54h24.63l17.18,68.54h.49l15.23-68.54h26.57l-26.09,108.89h-30.62l-16.2-67.08h-.49l-16.85,67.08h-30.79l-25.93-108.89Z"/>
      <path class="cls-1" d="M1292.11,1.94h28.03v21.06h-28.03V1.94ZM1292.28,32.41h27.71v83.61h-27.71V32.41Z"/>
      <path class="cls-1" d="M1365.35,77.29v38.56h-27.55V0h27.55v67.57l23.98-35.16h27.38l-26.9,38.24,28.36,45.21h-29.17l-23.66-38.56Z"/>
      <path class="cls-1" d="M1429.84,1.94h28.03v21.06h-28.03V1.94ZM1430,32.41h27.71v83.61h-27.71V32.41Z"/>
    </g>
    <g>
      <path class="cls-1" d="M402.81,162.03h3.59l16.88,45.5h-3.87l-5.36-14.44h-19.46l-5.29,14.44h-3.53l17.02-45.5ZM395.76,189.9h17.16l-8.54-23.06-8.61,23.06Z"/>
      <path class="cls-1" d="M429.53,174.23h3.39v2.78h.2c2.44-1.76,5.97-3.39,10.71-3.39,7.53,0,13.49,3.93,13.49,16.68v.68c0,11.93-5.83,17.09-15.19,17.09-4,0-7.05-1.15-9.09-2.37v12h-3.53v-43.47ZM453.67,191.46v-1.02c0-10.65-4.07-13.7-10.65-13.7-4.34,0-7.93,1.49-9.97,2.92v22.99c1.9,1.29,5.09,2.51,8.88,2.51,7.26,0,11.73-3.93,11.73-13.7Z"/>
      <path class="cls-1" d="M465.06,174.23h3.39v2.78h.2c2.44-1.76,5.97-3.39,10.71-3.39,7.53,0,13.49,3.93,13.49,16.68v.68c0,11.93-5.83,17.09-15.19,17.09-4,0-7.05-1.15-9.09-2.37v12h-3.53v-43.47ZM489.2,191.46v-1.02c0-10.65-4.07-13.7-10.65-13.7-4.34,0-7.93,1.49-9.97,2.92v22.99c1.9,1.29,5.09,2.51,8.88,2.51,7.26,0,11.73-3.93,11.73-13.7Z"/>
      <path class="cls-1" d="M500.66,158.98h3.66v48.55h-3.66v-48.55Z"/>
      <path class="cls-1" d="M511.99,191.25v-.75c0-11.6,6.65-16.88,14.44-16.88,9.02,0,13.16,5.56,13.16,15.53v2.03h-24c0,9.63,4.2,13.77,12.61,13.77,4.48,0,7.66-1.02,10.31-2.37v2.78c-2.03,1.22-5.7,2.71-10.78,2.71-10.44,0-15.73-6.1-15.73-16.82ZM515.65,188.34h20.28c0-7.87-3.12-11.8-9.63-11.8-5.22,0-10.1,3.32-10.65,11.8Z"/>
      <path class="cls-1" d="M565.83,162.03h12.61c14.17,0,21.63,6.98,21.63,21.9v1.02c0,14.78-6.78,22.58-21.56,22.58h-12.68v-45.5ZM578.58,204.34c12.07,0,17.56-5.76,17.56-18.92v-1.49c0-13.56-6.17-18.71-18.04-18.71h-8.61v39.13h9.09Z"/>
      <path class="cls-1" d="M605.97,191.25v-.75c0-11.6,6.65-16.88,14.44-16.88,9.02,0,13.16,5.56,13.16,15.53v2.03h-24c0,9.63,4.2,13.77,12.61,13.77,4.48,0,7.66-1.02,10.31-2.37v2.78c-2.03,1.22-5.7,2.71-10.78,2.71-10.44,0-15.73-6.1-15.73-16.82ZM609.63,188.34h20.28c0-7.87-3.12-11.8-9.63-11.8-5.22,0-10.1,3.32-10.65,11.8Z"/>
      <path class="cls-1" d="M637.57,174.17h3.87l10.58,28.62h.2l10.58-28.62h3.53l-12.54,33.36h-3.59l-12.61-33.36Z"/>
      <path class="cls-1" d="M670.73,191.25v-.75c0-11.6,6.65-16.88,14.44-16.88,9.02,0,13.16,5.56,13.16,15.53v2.03h-24c0,9.63,4.2,13.77,12.61,13.77,4.48,0,7.66-1.02,10.31-2.37v2.78c-2.03,1.22-5.7,2.71-10.78,2.71-10.44,0-15.73-6.1-15.73-16.82ZM674.39,188.34h20.28c0-7.87-3.12-11.8-9.63-11.8-5.22,0-10.1,3.32-10.65,11.8Z"/>
      <path class="cls-1" d="M705.99,158.98h3.66v48.55h-3.66v-48.55Z"/>
      <path class="cls-1" d="M717.32,191.39v-.88c0-10.92,6.31-16.88,14.85-16.88,9.02,0,14.92,5.76,14.92,16.68v.81c0,10.92-6.31,16.95-14.99,16.95s-14.78-5.76-14.78-16.68ZM743.42,191.46v-1.29c0-9.9-4.88-13.63-11.32-13.63s-11.12,4.75-11.12,13.63v1.36c0,9.7,4.81,13.63,11.26,13.63s11.19-4.68,11.19-13.7Z"/>
      <path class="cls-1" d="M754.68,174.23h3.39v2.78h.2c2.44-1.76,5.97-3.39,10.71-3.39,7.53,0,13.49,3.93,13.49,16.68v.68c0,11.93-5.83,17.09-15.19,17.09-4,0-7.05-1.15-9.09-2.37v12h-3.53v-43.47ZM778.82,191.46v-1.02c0-10.65-4.07-13.7-10.65-13.7-4.34,0-7.93,1.49-9.97,2.92v22.99c1.9,1.29,5.09,2.51,8.88,2.51,7.26,0,11.73-3.93,11.73-13.7Z"/>
      <path class="cls-1" d="M788.04,191.25v-.75c0-11.6,6.65-16.88,14.44-16.88,9.02,0,13.16,5.56,13.16,15.53v2.03h-24c0,9.63,4.2,13.77,12.61,13.77,4.48,0,7.66-1.02,10.31-2.37v2.78c-2.03,1.22-5.7,2.71-10.78,2.71-10.44,0-15.73-6.1-15.73-16.82ZM791.7,188.34h20.28c0-7.87-3.12-11.8-9.63-11.8-5.22,0-10.1,3.32-10.65,11.8Z"/>
      <path class="cls-1" d="M823.17,174.17h3.46v3.93h.2c2.03-2.17,5.76-4.34,9.9-4.34.68,0,1.49.07,1.97.2v3.25c-.75-.14-1.69-.2-2.24-.2-3.8,0-7.32,1.7-9.7,3.73v26.79h-3.59v-33.36Z"/>
      <path class="cls-1" d="M876.67,162.03h3.59l16.88,45.5h-3.86l-5.36-14.44h-19.46l-5.29,14.44h-3.53l17.02-45.5ZM869.62,189.9h17.16l-8.54-23.06-8.61,23.06Z"/>
      <path class="cls-1" d="M901.22,191.32v-.81c0-11.8,6.65-16.88,15.19-16.88,4.27,0,6.85.75,9.15,2.17v3.12c-2.78-1.42-5.09-2.17-9.43-2.17-6.51,0-11.26,4.14-11.26,13.22v1.29c0,8.95,3.73,13.7,11.73,13.7,4.68,0,7.59-1.42,9.43-2.51v2.98c-2.17,1.29-4.95,2.64-9.83,2.64-9.7,0-14.99-6.04-14.99-16.75Z"/>
      <path class="cls-1" d="M931.05,198.99c0-5.76,3.46-8.82,9.97-9.56l9.83-1.08v-4.34c0-5.63-2.58-7.26-8.54-7.26-3.32,0-6.04.54-8.41,1.22v-2.58c2.85-1.15,5.97-1.76,9.7-1.76,6.92,0,10.78,2.85,10.78,9.56v24.34h-2.98l-.27-2.98h-.2c-1.7,1.76-4.75,3.53-9.63,3.53-6.04,0-10.24-3.32-10.24-9.09ZM950.85,202.31v-11.32l-8.88,1.02c-5.02.54-7.32,2.58-7.32,6.85s2.92,6.44,7.53,6.44c3.73,0,6.92-1.42,8.68-2.98Z"/>
      <path class="cls-1" d="M961.97,191.53v-.81c0-11.93,6.24-17.09,14.78-17.09,4.41,0,7.39,1.22,9.43,2.58v-17.22h3.53v48.55h-2.98l-.34-2.98h-.2c-2.31,2.03-5.63,3.53-10.51,3.53-6.98,0-13.7-4.27-13.7-16.55ZM986.18,201.76v-22.51c-1.9-1.49-5.15-2.51-8.88-2.51-7.05,0-11.66,3.66-11.66,13.56v1.08c0,10.1,4.54,13.77,11.05,13.77,4.34,0,7.39-1.63,9.49-3.39Z"/>
      <path class="cls-1" d="M997.37,191.25v-.75c0-11.6,6.64-16.88,14.44-16.88,9.02,0,13.16,5.56,13.16,15.53v2.03h-24c0,9.63,4.2,13.77,12.61,13.77,4.48,0,7.66-1.02,10.31-2.37v2.78c-2.04,1.22-5.7,2.71-10.78,2.71-10.44,0-15.73-6.1-15.73-16.82ZM1001.03,188.34h20.28c0-7.87-3.12-11.8-9.63-11.8-5.22,0-10.1,3.32-10.65,11.8Z"/>
      <path class="cls-1" d="M1032.56,174.23h3.46v3.05h.2c3.53-2.24,7.32-3.66,11.12-3.66s6.51,1.22,7.87,3.8h.2c4.27-2.64,8.21-3.8,12-3.8,5.49,0,9.09,2.51,9.09,8.88v25.02h-3.59v-24.28c0-4.68-2.24-6.51-6.85-6.51-2.98,0-6.31,1.02-10.04,3.05.2.81.34,1.7.34,2.71v25.02h-3.66v-24.28c0-4.68-2.03-6.51-6.64-6.51-3.25,0-6.58,1.15-9.9,3.05v27.73h-3.59v-33.29Z"/>
      <path class="cls-1" d="M1084.37,216.75v-2.58c.88.2,2.17.34,3.39.34,3.53,0,5.22-1.36,6.58-4.81l1.42-3.66-12.95-31.87h3.73l10.99,27.19h.14l10.17-27.19h3.53l-13.7,35.94c-1.97,5.15-4.14,7.46-9.36,7.46-1.42,0-3.05-.41-3.93-.81Z"/>
      <path class="cls-1" d="M1133.94,193.29c0-15.8,9.83-30.45,28.68-30.45,14.92,0,23.26,9.7,23.26,22.85,0,12.07-5.56,19.8-14.31,19.8-4.34,0-6.04-2.1-6.37-4.61h-.2c-2.03,2.31-5.09,4.61-9.09,4.61-5.76,0-8.95-4.07-8.95-10.71,0-10.78,5.49-19.26,14.31-19.26,3.66,0,6.17,1.42,7.46,2.78h.27l.34-2.17h3.39l-4,21.7c-.54,3.12.2,5.02,3.46,5.02,6.24,0,10.44-6.24,10.44-16.95,0-11.87-6.44-20.21-20.14-20.21-16.54,0-25.29,12.27-25.29,27.53,0,13.56,7.19,21.7,22.51,21.7,6.31,0,11.66-1.56,14.78-2.71v2.58c-3.66,1.49-8.95,2.92-14.78,2.92-16.95,0-25.77-9.09-25.77-24.41ZM1165.13,198.04l3.12-16.95c-1.22-1.42-3.46-2.71-6.98-2.71-7.26,0-10.65,7.39-10.65,16.41,0,5.15,2.1,7.87,6.17,7.87,3.73,0,6.58-2.31,8.34-4.61Z"/>
      <path class="cls-1" d="M1194.97,162.03h12.54c10.78,0,15.19,4.81,15.19,13.09s-5.36,13.29-14.38,13.29h-9.76v19.12h-3.59v-45.5ZM1207.58,185.29c7.8,0,11.19-3.39,11.19-9.9,0-6.85-2.85-10.24-11.6-10.24h-8.61v20.14h9.02Z"/>
      <path class="cls-1" d="M1228.2,185.29v-1.02c0-14.58,7.53-22.92,19.73-22.92s19.46,8.07,19.46,22.92v1.02c0,14.44-7.53,22.92-19.6,22.92s-19.6-8.07-19.6-22.92ZM1263.46,185.83v-1.56c0-12.34-5.15-19.73-15.73-19.8-9.97,0-15.6,7.32-15.6,19.12v1.63c0,12.34,5.15,19.87,15.73,19.87s15.6-7.39,15.6-19.26Z"/>
      <path class="cls-1" d="M1273.16,205.09v-3.12c3.32,1.83,7.87,3.05,12.68,3.05,7.93,0,11.39-3.53,11.39-9.22s-3.19-7.59-9.02-9.49l-3.66-1.29c-7.12-2.37-10.65-5.49-10.65-12.34,0-6.44,4.61-11.32,13.7-11.32,5.22,0,8.61,1.29,11.05,2.51v3.25c-2.51-1.36-6.31-2.58-11.19-2.58-6.58,0-9.83,3.19-9.83,7.87,0,5.09,2.04,7.26,8.34,9.29l3.66,1.22c6.92,2.31,11.26,5.02,11.26,12.61s-4.41,12.75-14.85,12.75c-5.42,0-9.97-1.49-12.88-3.19Z"/>
      <path class="cls-1" d="M1320.83,165.15h-14.78v-3.12h33.29v3.12h-14.78v42.38h-3.73v-42.38Z"/>
      <path class="cls-1" d="M1346.8,162.03h26.65v3.12h-22.99v17.43h17.7v3.12h-17.7v18.71h23.06v3.12h-26.72v-45.5Z"/>
      <path class="cls-1" d="M1378.87,185.29v-1.15c0-15.66,8.21-22.78,20.21-22.78,5.09,0,8.41,1.08,11.12,2.51v3.19c-3.19-1.49-6.51-2.51-11.32-2.51-9.83,0-16.07,5.9-16.07,18.92v1.83c0,12.75,4.75,19.73,15.8,19.73,5.83,0,9.15-1.56,11.93-2.98v3.19c-2.64,1.49-6.51,2.98-12.34,2.98-12.48,0-19.33-7.93-19.33-22.92Z"/>
      <path class="cls-1" d="M1419.56,162.03h3.59v20.28h25.29v-20.28h3.66v45.5h-3.66v-22.11h-25.29v22.11h-3.59v-45.5Z"/>
    </g>
    <g>
      <polygon class="cls-1" points="116.48 7.2 66.02 7.2 0 210.38 50.46 210.38 116.48 7.2"/>
      <polyline class="cls-1" points="393.95 7.2 343.49 7.2 277.48 210.38 327.94 210.38 393.95 7.2"/>
      <polygon class="cls-1" points="182.91 210.38 132.45 210.38 66.43 7.2 116.9 7.2 182.91 210.38"/>
      <polygon class="cls-1" points="252.56 7.2 202.1 7.2 163.52 125.83 188.7 203.64 252.56 7.2"/>
      <polygon class="cls-1" points="318.99 210.38 268.53 210.38 202.52 7.2 252.98 7.2 318.99 210.38"/>
    </g>
  </g>
</svg>